<svg>

    <symbol id="cart" viewBox="0 0 20 20" fill="currentColor" xmlns="http://www.w3.org/2000/svg">
        <path d="M3 1a1 1 0 000 2h1.22l.305 1.222a.997.997 0 00.01.042l1.358 5.43-.893.892C3.74 11.846 4.632 14 6.414 14H15a1 1 0 000-2H6.414l1-1H14a1 1 0 00.894-.553l3-6A1 1 0 0017 3H6.28l-.31-1.243A1 1 0 005 1H3zM16 16.5a1.5 1.5 0 11-3 0 1.5 1.5 0 013 0zM6.5 18a1.5 1.5 0 100-3 1.5 1.5 0 000 3z" />
    </symbol>

    <symbol id="success" viewBox="0 0 24 24" fill="none" xmlns="http://www.w3.org/2000/svg">
        <circle cx="12" cy="12" fill="#6b068a" r="10"/>
        <path clip-rule="evenodd" d="m16.6766 8.58327c.1936.19698.1908.51355-.0062.70708l-5.7054 5.60545c-.1914.1881-.4972.1915-.6927.0078l-2.67382-2.5115c-.20128-.189-.21118-.5055-.02212-.7067.18906-.2013.50548-.2112.70676-.0222l2.32368 2.1827 5.3628-5.26888c.1969-.19353.5135-.19073.707.00625z" fill="#fff" fill-rule="evenodd"/>
    </symbol>

    <symbol id="unsuccessful" viewBox="0 0 24 24" fill="none" xmlns="http://www.w3.org/2000/svg">
        <circle cx="12" cy="12" fill="#6b068a" r="10"/>
        <path clip-rule="evenodd" d="m8.44461 9.17169c-.19588-.19464-.19689-.51122-.00224-.7071.19464-.19588.51122-.19689.7071-.00225l2.85073 2.83266 2.8502-2.83217c.1959-.19464.5125-.19363.7071.00225.1947.19588.1937.51246-.0022.7071l-2.8457 2.82772 2.8457 2.8277c.1959.1947.1969.5112.0023.7071-.1947.1959-.5113.1969-.7071.0023l-2.8503-2.8323-2.85077 2.8328c-.19589.1946-.51247.1936-.70711-.0023s-.19363-.5125.00225-.7071l2.84623-2.8282z" fill="#fff" fill-rule="evenodd"/>
    </symbol>

</svg>